<svg width="8" height="8" viewBox="0 0 8 8" fill="none" xmlns="http://www.w3.org/2000/svg">
<path d="M1.57312 3.38289H1.57289H1.05894C0.951606 3.38289 0.888947 3.46106 0.865924 3.52117C0.842206 3.5831 0.842215 3.66315 0.885253 3.73234L0.885292 3.7324L2.89918 6.96607L2.89922 6.96613C2.96986 7.07944 3.08372 7.15 3.21115 7.15C3.3385 7.15 3.45238 7.07955 3.52336 6.96657L3.52368 6.96606L7.11405 1.19963C7.11419 1.1994 7.11434 1.19917 7.11448 1.19894C7.15811 1.12963 7.15763 1.04938 7.13399 0.98794C7.11092 0.928004 7.04826 0.85 6.94106 0.85H6.42711C6.29388 0.85 6.18124 0.927267 6.115 1.03476C6.11493 1.03488 6.11485 1.03501 6.11478 1.03513L3.21107 5.69722L1.88485 3.56741L1.75744 3.64658L1.88477 3.56729L1.88483 3.56738C1.85194 3.51446 1.80796 3.46834 1.75414 3.43518C1.69997 3.40181 1.63795 3.38299 1.57312 3.38289Z" fill="white" stroke="white" stroke-width="0.3"/>
</svg>
